<svg width="20" height="20" viewBox="0 0 20 20" fill="none" xmlns="http://www.w3.org/2000/svg">
<path d="M19.2928 6.85134C20.4891 5.65505 19.9436 4.25777 19.2928 3.57827L16.4217 0.707159C15.2159 -0.489139 13.8282 0.056373 13.1487 0.707159L11.5217 2.34369H9.04296C7.22459 2.34369 6.17185 3.30073 5.63591 4.40133L1.38666 8.65058V12.4787L0.707159 13.1487C-0.489139 14.3545 0.056373 15.7422 0.707159 16.4217L3.57827 19.2928C4.09507 19.8096 4.65016 20.0011 5.17653 20.0011C5.85602 20.0011 6.4781 19.6661 6.85134 19.2928L9.43535 16.6993H12.8711C14.4981 16.6993 15.3211 15.6848 15.6178 14.6895C16.6993 14.4024 17.2926 13.5793 17.5319 12.7754C19.0153 12.3926 19.5704 10.9858 19.5704 10V7.12889H19.0057L19.2928 6.85134ZM17.6563 10C17.6563 10.4307 17.4745 10.957 16.6993 10.957H15.7422V11.9141C15.7422 12.3447 15.5604 12.8711 14.7852 12.8711H13.8282V13.8282C13.8282 14.2588 13.6463 14.7852 12.8711 14.7852H8.65058L5.51149 17.9243C5.21481 18.2018 5.04254 18.0391 4.93727 17.9338L2.07572 15.0819C1.79818 14.7852 1.96088 14.6129 2.06615 14.5076L3.30073 13.2635V9.43535L5.21481 7.52127V9.04296C5.21481 10.201 5.98044 11.9141 8.08592 11.9141C10.1914 11.9141 10.957 10.201 10.957 9.04296H17.6563V10ZM17.9338 5.49235L16.3069 7.12889H9.04296V9.04296C9.04296 9.47363 8.86113 10 8.08592 10C7.31072 10 7.12889 9.47363 7.12889 9.04296V6.17185C7.12889 5.73161 7.29158 4.25777 9.04296 4.25777H12.3065L14.4885 2.07572C14.7852 1.79818 14.9575 1.96088 15.0627 2.06615L17.9243 4.91813C18.2018 5.21481 18.0391 5.38708 17.9338 5.49235Z" fill="#FF9800"/>
</svg>
