<svg width="20" height="24" viewBox="0 0 20 24" fill="none" xmlns="http://www.w3.org/2000/svg">
<path d="M19.36 18.0157L13.3339 9.72955V1.66673H15.0006V0H5.00022V1.66673H6.66695V9.72955L0.640882 18.0157C0.277396 18.5153 0.0592023 19.1056 0.0104453 19.7215C-0.0383116 20.3374 0.0842689 20.9548 0.364623 21.5053C0.644978 22.0558 1.07218 22.5181 1.59894 22.8408C2.12571 23.1636 2.73152 23.3344 3.34932 23.3343H16.6507C17.2685 23.3344 17.8743 23.1636 18.4011 22.8408C18.9278 22.5181 19.355 22.0558 19.6354 21.5053C19.9157 20.9548 20.0383 20.3374 19.9896 19.7215C19.9408 19.1056 19.7226 18.5153 19.3591 18.0157M8.33368 10.2712V1.66673H11.6671V10.2712L13.8947 13.3339H6.1061L8.33368 10.2712ZM16.6515 21.6675H3.35016C3.03997 21.6672 2.73591 21.5812 2.47153 21.4189C2.20715 21.2567 1.99273 21.0246 1.85195 20.7482C1.71116 20.4718 1.64948 20.1618 1.67371 19.8526C1.69795 19.5434 1.80715 19.2468 1.98927 18.9957L4.89438 15.0006H15.1065L18.0124 18.9957C18.1945 19.2468 18.3037 19.5434 18.328 19.8526C18.3522 20.1618 18.2905 20.4718 18.1497 20.7482C18.0089 21.0246 17.7945 21.2567 17.5301 21.4189C17.2658 21.5812 16.9617 21.6672 16.6515 21.6675Z" fill="#4CAF50"/>
</svg>
