<svg width="181" height="180" viewBox="0 0 181 180" fill="none" xmlns="http://www.w3.org/2000/svg">
<path d="M180.159 107.823C180.159 120.259 180.159 132.695 180.159 145.131C179.594 145.448 179.664 146.12 179.417 146.614C177.933 149.829 175.46 151.808 171.998 152.444C171.009 152.62 169.949 152.55 168.642 152.62C172.599 156.93 173.411 161.876 173.129 167.176C173.058 168.624 173.129 170.108 173.129 171.556C173.129 176.856 170.02 179.929 164.685 179.929C154.298 179.929 143.947 179.929 133.56 179.929C133.101 179.929 132.606 179.965 132.147 179.894C130.699 179.647 129.815 178.799 129.815 177.28C129.815 175.761 130.699 174.913 132.183 174.701C132.712 174.63 133.242 174.665 133.772 174.665C143.452 174.665 153.132 174.665 162.777 174.665C167.829 174.665 167.759 174.665 167.865 169.578C167.9 167.918 167.405 167.635 165.851 167.635C115.719 167.67 65.6232 167.67 15.4917 167.67C12.3121 167.67 12.3121 167.67 12.3121 170.85C12.3121 174.171 12.842 174.701 16.1629 174.701C50.4671 174.701 84.736 174.701 119.04 174.701C121.407 174.701 122.679 175.584 122.714 177.28C122.75 179.046 121.443 180 118.97 180C112.116 180 105.262 180 98.4082 180C70.7458 180 43.0834 180 15.421 180C10.1217 180 7.04809 176.891 7.04809 171.592C7.04809 169.119 7.04809 166.681 7.04809 164.208C7.04809 160.251 8.24926 156.754 10.6869 153.645C10.8989 153.362 11.4289 153.15 11.0756 152.62C10.5456 152.62 10.051 152.62 9.5211 152.62C4.32777 152.514 0.0883219 148.416 0.0529931 143.258C-0.0176644 132.059 -0.0176644 120.86 0.0529931 109.66C0.0883219 105.138 3.33857 101.358 7.78999 100.475C10.2277 99.9804 12.7007 100.298 15.1384 100.263C16.1629 100.263 16.5515 100.086 16.5515 98.9558C16.4809 92.1727 16.5162 85.3543 16.5515 78.5712C16.5515 77.7939 16.4102 77.37 15.5623 77.052C11.3935 75.6035 9.41511 72.2473 10.2983 68.0079C11.8528 60.7301 13.5132 53.5231 15.1737 46.2807C15.633 44.2316 16.8695 42.7125 18.6359 41.6173C20.0137 40.7694 21.5682 40.5221 23.1933 40.5221C30.471 40.5221 37.7134 40.5221 44.9912 40.5221C45.5918 40.5221 46.475 40.9107 46.4396 39.6389C46.4043 37.2718 46.4396 34.9048 46.4396 32.2905C45.8037 32.6438 45.3445 32.8911 44.9205 33.1737C44.4259 33.4917 43.9313 33.8449 43.4367 34.0922C42.1295 34.7282 40.5751 34.3396 39.9392 33.103C39.2326 31.7959 39.5152 30.5947 40.6811 29.6762C41.0697 29.3582 41.5643 29.1109 41.9882 28.8283C53.5761 21.4446 65.1639 14.0608 76.8224 6.71246C80.6025 4.34544 84.1001 1.51914 88.3749 0C89.5407 0 90.7066 0 91.9077 0C93.6742 0.671246 95.37 1.48381 96.9598 2.50834C103.248 6.57115 109.572 10.5633 115.896 14.5908C123.598 19.5015 131.299 24.3768 138.966 29.2875C140.697 30.3827 141.156 31.8665 140.273 33.2444C139.39 34.6222 137.87 34.7988 136.104 33.739C135.362 33.315 134.762 32.6791 133.772 32.4671C133.772 34.6928 133.878 36.8126 133.737 38.897C133.666 40.3101 134.126 40.6281 135.468 40.6281C142.605 40.5574 149.776 40.5927 156.913 40.5927C161.541 40.5927 164.226 42.7125 165.25 47.2345C166.805 54.1236 168.359 61.0128 169.878 67.9372C170.832 72.2473 168.889 75.6035 164.614 77.1227C163.872 77.37 163.66 77.6879 163.66 78.4652C163.696 85.3896 163.696 92.2787 163.66 99.2031C163.66 100.228 164.084 100.334 164.897 100.334C166.769 100.298 168.642 100.263 170.514 100.334C174.648 100.475 177.58 102.489 179.382 106.163C179.664 106.587 179.594 107.329 180.159 107.823ZM90 147.25C116.567 147.25 143.099 147.25 169.666 147.25C173.27 147.25 174.895 145.625 174.895 141.986C174.895 131.564 174.895 121.107 174.895 110.685C174.895 107.081 173.235 105.421 169.631 105.421C116.638 105.421 63.6447 105.421 10.6516 105.421C6.97743 105.421 5.35231 107.081 5.35231 110.791C5.35231 121.036 5.35231 131.317 5.35231 141.562C5.35231 145.766 6.80078 147.25 11.0402 147.25C37.3602 147.25 63.6801 147.25 90 147.25ZM90.106 74.0491C97.419 74.0491 104.767 74.0491 112.08 74.0491C114.907 74.0491 115.755 74.897 115.755 77.6879C115.755 84.6477 115.79 91.6428 115.719 98.6026C115.719 99.8391 116.037 100.157 117.274 100.122C120.559 100.016 123.845 100.051 127.131 100.122C128.12 100.157 128.544 99.9804 128.544 98.8145C128.508 86.4495 128.508 74.0844 128.508 61.7193C128.508 59.6703 127.66 58.0805 125.965 57.0206C114.871 49.9549 103.778 42.8891 92.6497 35.8234C90.9539 34.7282 89.2581 34.7988 87.527 35.894C76.5397 42.8891 65.5172 49.8842 54.4946 56.8793C52.6222 58.0805 51.6683 59.7409 51.739 62.002C51.8096 65.1815 51.739 68.3258 51.739 71.5054C51.739 74.1551 51.7743 76.7694 51.739 79.419C51.7036 80.7262 51.0677 81.6801 49.7959 82.0334C48.6654 82.3867 47.7115 81.9627 46.9696 81.0795C46.369 80.3376 46.4043 79.419 46.475 78.5712C46.5456 77.6526 46.3337 77.2287 45.2738 77.2287C37.8194 77.264 30.4004 77.264 22.946 77.2287C22.1335 77.2287 21.8155 77.4053 21.8508 78.2885C21.8862 85.213 21.8862 92.1374 21.8508 99.0265C21.8508 99.8391 22.0275 100.122 22.9107 100.122C30.4004 100.086 37.9254 100.086 45.4151 100.122C46.263 100.122 46.5103 99.8744 46.5103 99.0265C46.4396 96.8008 46.475 94.5751 46.5103 92.3494C46.5103 90.4063 47.4642 89.2404 49.0186 89.1698C50.6791 89.0991 51.739 90.3003 51.7743 92.314C51.8096 94.3631 51.8449 96.4122 51.739 98.4612C51.6683 99.6977 51.9156 100.192 53.3288 100.122C56.5437 99.9804 59.7586 100.016 63.0088 100.122C64.21 100.157 64.5633 99.8391 64.5633 98.6026C64.4926 91.6428 64.528 84.6477 64.528 77.6879C64.528 74.8616 65.3759 74.0137 68.2022 74.0137C75.4445 74.0491 82.7929 74.0491 90.106 74.0491ZM117.556 40.3808C121.655 40.3808 124.446 40.3454 127.272 40.3808C128.12 40.3808 128.544 40.2748 128.508 39.2856C128.438 36.0707 128.438 32.8557 128.508 29.6055C128.508 28.8283 128.155 28.4396 127.59 28.0864C115.931 20.7027 104.308 13.2836 92.6497 5.8999C90.9539 4.80471 89.2581 4.87537 87.527 5.93523C75.9392 13.3189 64.3513 20.7027 52.7282 28.051C52.0216 28.5103 51.7036 28.9696 51.7036 29.8528C51.7743 32.8911 51.7743 35.9647 51.7036 39.0029C51.6683 40.0275 51.8803 40.4161 53.0108 40.3808C58.5221 40.3101 64.0334 40.3454 69.5446 40.3454C70.3572 40.3454 70.9931 40.0981 71.6644 39.6742C75.9038 36.9539 80.1433 34.2689 84.3827 31.5486C88.1629 29.1109 91.9431 29.0756 95.7232 31.5133C97.737 32.8204 99.892 33.9509 101.764 35.3994C106.852 39.2856 112.257 41.8292 117.556 40.3808ZM90.106 162.371C115.331 162.371 140.52 162.371 165.745 162.371C167.935 162.371 167.935 162.371 167.264 160.322C165.568 155.376 161.329 152.55 155.57 152.55C111.939 152.55 68.3435 152.55 24.7125 152.55C24.2532 152.55 23.7586 152.55 23.2993 152.585C18.4946 152.832 14.3965 155.976 12.948 160.499C12.3474 162.406 12.3474 162.406 14.3258 162.406C39.5859 162.371 64.8459 162.371 90.106 162.371ZM61.737 45.998C61.7017 45.8921 61.6663 45.7507 61.6663 45.6447C48.6654 45.6447 35.6997 45.6447 22.6987 45.6447C21.3562 45.6447 20.5083 46.3867 20.2257 47.6938C18.6712 54.7242 17.0815 61.7193 15.5623 68.7498C15.103 70.9048 15.9863 71.894 18.106 71.9293C27.1501 71.9647 36.159 71.9293 45.2031 71.9647C46.4043 71.9647 46.5103 71.5054 46.475 70.5162C46.4043 67.7606 46.5103 65.0049 46.4396 62.2493C46.3337 57.7978 48.2061 54.5123 51.9863 52.1806C55.2365 50.2022 58.4867 48.0824 61.737 45.998ZM118.51 45.6447C118.616 46.3513 119.182 46.422 119.535 46.6693C122.538 48.6124 125.576 50.4848 128.579 52.4279C132.041 54.6536 133.808 57.8332 133.772 62.002C133.737 64.7576 133.843 67.5132 133.737 70.2689C133.702 71.5761 133.949 72.0353 135.397 72.0353C144.124 71.9647 152.85 72 161.611 72C164.402 72 165.18 71.0108 164.579 68.2905C163.131 61.79 161.647 55.2895 160.198 48.789C159.562 45.9627 159.209 45.7154 156.277 45.7154C144.194 45.7154 132.112 45.7154 120.065 45.7154C119.535 45.6447 119.04 45.6447 118.51 45.6447ZM146.031 77.2287C142.463 77.2287 138.895 77.264 135.327 77.1933C134.161 77.158 133.737 77.4053 133.737 78.7125C133.808 85.3189 133.808 91.9607 133.737 98.5672C133.737 99.7684 133.949 100.157 135.256 100.157C142.534 100.086 149.776 100.122 157.054 100.157C158.078 100.157 158.467 99.9804 158.432 98.8499C158.361 92.1021 158.361 85.3896 158.432 78.6418C158.432 77.4406 158.008 77.2287 156.948 77.2287C153.309 77.264 149.67 77.2287 146.031 77.2287ZM87.4563 89.8764C87.4563 86.7674 87.421 83.6585 87.4917 80.5849C87.527 79.5604 87.209 79.3131 86.2198 79.3131C81.1325 79.3484 76.0451 79.3484 70.9578 79.3131C69.8979 79.3131 69.7213 79.7017 69.7213 80.6202C69.7566 86.6968 69.7566 92.8086 69.7213 98.8852C69.7213 99.8744 70.0039 100.157 70.9931 100.157C76.0098 100.122 81.0618 100.086 86.1138 100.157C87.3503 100.192 87.527 99.6977 87.4917 98.6379C87.421 95.7409 87.4563 92.8086 87.4563 89.8764ZM110.491 89.6997C110.491 86.6614 110.455 83.6232 110.526 80.5496C110.561 79.5604 110.243 79.2777 109.254 79.2777C104.167 79.313 99.0795 79.313 93.9921 79.2777C92.9323 79.2777 92.7556 79.631 92.791 80.5849C92.8263 86.6614 92.8263 92.7733 92.791 98.8499C92.791 99.8391 93.0383 100.122 94.0628 100.122C99.0795 100.086 104.131 100.051 109.184 100.122C110.42 100.157 110.597 99.6977 110.597 98.6379C110.42 95.6703 110.491 92.7027 110.491 89.6997Z" fill="#FF7272"/>
<path d="M138.754 123.686C138.824 123.686 138.86 123.686 138.93 123.686C144.053 123.686 145.007 124.922 143.806 129.939C142.534 135.203 138.577 138.453 133.454 138.489C127.837 138.524 122.997 134.85 121.549 129.409C120.277 124.675 122.078 119.588 126.071 116.62C130.063 113.653 135.397 113.37 139.602 115.914C140.838 116.656 141.509 117.609 141.156 119.093C140.873 120.33 139.955 120.93 138.754 121.072C137.835 121.178 137.129 120.542 136.316 120.153C132.606 118.387 128.367 120.047 126.883 123.863C125.399 127.643 127.448 131.776 131.37 132.942C134.161 133.79 136.952 132.659 138.082 130.257C138.471 129.409 138.612 128.809 137.305 128.95C136.775 129.021 136.245 128.985 135.715 128.95C134.232 128.844 133.348 128.031 133.207 126.512C133.066 125.064 134.055 123.933 135.539 123.686C135.645 123.651 135.786 123.651 135.892 123.651C136.881 123.686 137.835 123.686 138.754 123.686Z" fill="#FF7272"/>
<path d="M65.8351 126.23C65.8705 132.942 60.3945 138.453 53.7174 138.418C47.1109 138.418 41.6349 132.977 41.5996 126.371C41.5643 119.694 47.0756 114.147 53.7527 114.147C60.3592 114.183 65.7998 119.623 65.8351 126.23ZM53.788 119.447C50.0432 119.411 46.9342 122.449 46.8636 126.194C46.7929 129.939 49.8312 133.083 53.576 133.154C57.3916 133.225 60.5711 130.151 60.5711 126.336C60.5711 122.591 57.5329 119.482 53.788 119.447Z" fill="#FF7272"/>
<path d="M17.2934 125.417C17.4701 121.637 19.4838 117.998 23.5113 115.737C27.5034 113.511 31.5663 113.582 35.5584 115.878C37.5721 117.009 37.9608 119.023 36.5123 120.33C35.3111 121.425 34.1099 121.107 32.8028 120.4C28.7753 118.245 24.2179 120.082 22.8754 124.287C21.9568 127.184 23.0874 130.328 25.5957 131.988C28.21 133.719 30.895 133.507 33.4387 131.317C34.7105 130.222 36.159 130.186 37.2189 131.211C38.314 132.271 38.314 133.684 37.2189 134.991C34.1453 138.736 27.998 139.513 23.264 136.722C19.5191 134.532 17.2581 130.575 17.2934 125.417Z" fill="#FF7272"/>
<path d="M148.928 126.336C148.928 123.403 148.928 120.471 148.928 117.539C148.964 115.066 149.882 114.183 152.355 114.147C154.652 114.147 156.913 114.112 159.209 114.147C161.081 114.183 162.247 115.207 162.212 116.832C162.177 118.422 161.011 119.376 159.103 119.411C158.22 119.411 157.337 119.411 156.453 119.411C154.157 119.411 154.263 119.411 154.122 121.743C154.016 123.262 154.44 123.863 156.029 123.651C156.948 123.509 157.902 123.58 158.82 123.651C160.481 123.721 161.541 124.746 161.541 126.23C161.541 127.749 160.516 128.809 158.891 128.879C157.725 128.95 156.559 128.95 155.394 128.879C154.546 128.844 154.157 129.021 154.122 130.01C154.051 133.119 153.98 133.119 157.054 133.119C157.937 133.119 158.82 133.083 159.704 133.154C161.187 133.295 162.247 134.461 162.141 135.839C162.035 137.323 161.187 138.312 159.704 138.347C156.913 138.453 154.086 138.453 151.26 138.347C149.706 138.277 148.858 137.111 148.858 135.238C148.928 132.306 148.928 129.303 148.928 126.336Z" fill="#FF7272"/>
<path d="M103.743 126.265C103.743 123.333 103.743 120.4 103.743 117.468C103.743 115.066 104.626 114.183 106.993 114.147C109.289 114.147 111.551 114.112 113.847 114.147C115.79 114.183 116.92 115.136 116.92 116.726C116.956 118.422 115.825 119.376 113.741 119.411C113.14 119.411 112.575 119.411 111.974 119.411C108.654 119.411 108.689 119.411 108.972 122.767C109.042 123.474 109.254 123.651 109.89 123.651C111.056 123.615 112.222 123.615 113.388 123.651C115.154 123.686 116.32 124.71 116.355 126.23C116.391 127.784 115.189 128.879 113.317 128.915C112.61 128.95 111.904 128.915 111.197 128.915C108.936 128.915 109.042 128.915 108.901 131.246C108.83 132.765 109.183 133.366 110.773 133.154C111.939 133.013 113.105 133.083 114.271 133.154C115.79 133.225 116.815 134.285 116.85 135.698C116.885 137.146 115.896 138.312 114.412 138.347C111.657 138.418 108.901 138.418 106.145 138.347C104.591 138.312 103.672 137.252 103.672 135.521C103.708 132.483 103.743 129.374 103.743 126.265Z" fill="#FF7272"/>
<path d="M70.4985 126.265C70.4985 123.333 70.4985 120.4 70.4985 117.468C70.4985 115.384 71.4877 114.183 73.0775 114.147C74.738 114.112 75.7625 115.348 75.7625 117.503C75.7625 122.061 75.8685 126.654 75.7272 131.211C75.6919 132.907 76.2571 133.331 77.7763 133.154C78.4828 133.048 79.1894 133.083 79.896 133.154C81.4151 133.26 82.4397 134.32 82.4043 135.768C82.369 137.288 81.5211 138.277 80.0726 138.347C77.6703 138.489 75.2679 138.489 72.8656 138.347C71.3111 138.277 70.4985 137.111 70.4985 135.203C70.4985 132.236 70.4985 129.268 70.4985 126.265Z" fill="#FF7272"/>
<path d="M87.315 126.124C87.315 123.191 87.315 120.259 87.315 117.327C87.315 115.348 88.4102 114.112 90.0353 114.147C91.5898 114.183 92.579 115.384 92.579 117.291C92.579 122.096 92.6143 126.901 92.5436 131.706C92.5436 132.871 92.8263 133.26 93.9921 133.154C94.9107 133.048 95.8645 133.048 96.7831 133.154C98.2669 133.295 99.1501 134.214 99.1855 135.698C99.2208 137.182 98.3376 138.241 96.8891 138.312C94.4867 138.453 92.0844 138.489 89.682 138.312C88.0216 138.206 87.2797 137.04 87.2797 135.415C87.315 132.342 87.315 129.233 87.315 126.124Z" fill="#FF7272"/>
</svg>
