<svg width="180" height="180" viewBox="0 0 180 180" fill="none" xmlns="http://www.w3.org/2000/svg">
<path d="M120.902 180C84.832 180 48.7266 180 12.6562 180C12.5859 179.613 12.2344 179.648 11.9883 179.543C8.61328 178.066 6.96094 175.5 7.03125 171.844C7.06641 169.91 7.10156 167.977 7.03125 166.043C6.78516 161.156 7.98047 156.797 11.1797 153C11.2148 152.93 11.1445 152.789 11.1094 152.613C10.7578 152.613 10.4414 152.613 10.0898 152.613C5.41406 152.578 2.21484 150.363 0.492188 146.039C0.386719 145.758 0.457031 145.301 0 145.195C0 132.645 0 120.129 0 107.578C0.527344 107.402 0.492188 106.84 0.667969 106.418C2.42578 102.41 5.48438 100.371 9.80859 100.23C11.6367 100.16 13.4297 100.195 15.2578 100.23C16.1016 100.266 16.4883 100.125 16.4883 99.1055C16.4531 92.1797 16.4531 85.2891 16.4883 78.3633C16.4883 77.5547 16.207 77.2734 15.5039 77.0273C11.3203 75.5508 9.35156 72.2109 10.2656 67.9922C11.8125 60.75 13.4648 53.5078 15.1172 46.2656C15.6445 43.875 17.1562 42.2227 19.3359 41.2031C20.5664 40.6055 21.9023 40.5 23.2734 40.5C30.4805 40.5 37.6875 40.5 44.8945 40.5352C46.0195 40.5352 46.4414 40.3242 46.3711 39.0938C46.2656 36.9141 46.3359 34.6992 46.3359 32.2734C45.6328 32.6953 45.1406 32.9766 44.6836 33.2578C42.3281 34.7344 40.957 34.7344 39.9375 33.2227C38.8828 31.6758 39.4805 30.3047 41.8711 28.793C52.1719 22.2539 62.4375 15.6094 72.8086 9.17578C77.8711 6.01172 82.582 2.25 88.207 0C89.3672 0 90.5625 0 91.7227 0C93.4805 0.667969 95.168 1.47656 96.7851 2.49609C103.008 6.50391 109.301 10.4766 115.559 14.4492C123.293 19.3711 131.027 24.293 138.762 29.2148C140.484 30.3398 140.941 31.7812 140.062 33.1875C139.184 34.5586 137.672 34.7344 135.914 33.6797C135.176 33.2578 134.578 32.625 133.594 32.4141C133.594 34.6289 133.699 36.7383 133.559 38.8125C133.488 40.2188 133.945 40.5352 135.281 40.5352C142.418 40.4648 149.555 40.5 156.691 40.5C161.332 40.5 164.004 42.6094 165.023 47.1445C166.605 54.0352 168.152 60.9258 169.629 67.8164C170.578 72.1055 168.645 75.4805 164.391 76.9922C163.652 77.2383 163.406 77.5547 163.441 78.3633C163.477 85.2539 163.477 92.1797 163.441 99.0703C163.441 100.09 163.863 100.195 164.672 100.195C166.535 100.16 168.434 100.125 170.297 100.195C174.41 100.336 177.363 102.34 179.156 106.031C179.438 106.629 179.367 107.367 179.93 107.859C179.93 120.27 179.93 132.68 179.93 145.125C179.367 145.406 179.438 146.004 179.262 146.461C177.855 149.73 175.43 151.699 171.984 152.402C170.93 152.613 169.84 152.543 168.434 152.648C174.34 158.906 173.039 166.465 172.723 173.672C172.582 177.152 169.805 178.98 166.605 179.93C154.898 179.93 143.191 179.93 131.449 179.93C130.184 179.121 129.234 178.066 129.797 176.484C130.324 174.902 131.695 174.656 133.207 174.656C143.156 174.691 153.105 174.656 163.055 174.656C167.449 174.656 167.66 174.445 167.66 169.98C167.66 167.66 167.66 167.66 165.41 167.66C115.453 167.66 65.5312 167.66 15.5742 167.66C12.3047 167.66 12.3047 167.66 12.3047 170.93C12.3047 174.129 12.8672 174.691 16.0664 174.691C50.3789 174.691 84.6914 174.691 119.004 174.691C120.48 174.691 121.816 174.832 122.449 176.484C123.012 178.172 121.992 179.086 120.902 180ZM89.8945 147.34C116.367 147.34 142.84 147.34 169.312 147.34C173.074 147.34 174.656 145.758 174.656 142.031C174.656 131.66 174.656 121.289 174.656 110.918C174.656 107.121 173.039 105.504 169.207 105.504C116.367 105.504 63.5625 105.504 10.7227 105.504C6.89062 105.504 5.27344 107.121 5.27344 110.918C5.27344 121.113 5.27344 131.309 5.27344 141.504C5.27344 145.863 6.67969 147.305 11.0039 147.305C37.3008 147.34 63.5977 147.34 89.8945 147.34ZM90 74.2148C97.3125 74.2148 104.625 74.2148 111.973 74.2148C114.75 74.2148 115.594 75.0586 115.594 77.9062C115.594 84.832 115.629 91.7227 115.559 98.6484C115.559 99.8789 115.734 100.371 117.141 100.301C120.34 100.16 123.574 100.195 126.809 100.301C128.039 100.336 128.355 100.02 128.355 98.7539C128.32 86.625 128.285 74.4961 128.355 62.4023C128.355 59.9414 127.406 58.1836 125.332 56.8828C114.469 50.0273 103.605 43.1016 92.7773 36.1758C90.8789 34.9805 89.1211 34.9453 87.2227 36.1758C76.3242 43.1367 65.4258 50.0625 54.5273 56.9531C52.5937 58.1836 51.6094 59.8359 51.6445 62.1914C51.7148 67.5703 51.6797 72.9492 51.6445 78.3633C51.6445 80.9648 50.8711 82.1602 49.1484 82.2656C47.3906 82.3711 46.5117 81.2109 46.4062 78.4688C46.3711 77.6602 46.1953 77.3438 45.3164 77.3789C37.8281 77.4141 30.3398 77.4141 22.8164 77.3789C21.9375 77.3789 21.7617 77.6602 21.7617 78.4688C21.7969 85.3945 21.7969 92.2852 21.7617 99.2109C21.7617 100.09 22.043 100.266 22.8516 100.266C30.3047 100.23 37.7227 100.23 45.1758 100.266C46.2305 100.266 46.4062 99.8789 46.4062 98.9648C46.3359 96.7852 46.3711 94.6406 46.4062 92.4609C46.4062 90.5273 47.3906 89.3672 48.9727 89.332C50.625 89.2969 51.6797 90.4922 51.6797 92.5313C51.7148 94.7109 51.75 96.8555 51.6797 99.0352C51.6445 100.02 51.9258 100.301 52.9453 100.301C56.2852 100.23 59.625 100.195 62.9648 100.301C64.2656 100.336 64.4766 99.9141 64.4766 98.7188C64.4062 91.9336 64.4414 85.1484 64.4414 78.3281C64.4414 74.8828 65.1094 74.1797 68.4844 74.1797C75.5859 74.2148 82.793 74.2148 90 74.2148ZM117.492 40.5703C121.5 40.5703 124.277 40.5352 127.02 40.6055C127.969 40.6406 128.355 40.4297 128.32 39.375C128.25 36.2812 128.285 33.1875 128.32 30.0586C128.32 29.2852 128.145 28.793 127.441 28.3359C115.734 20.918 104.062 13.5 92.3555 6.08203C90.7031 5.02734 89.0508 5.09766 87.3984 6.15234C75.7617 13.5703 64.125 20.9531 52.4883 28.3359C51.8203 28.7578 51.5742 29.2148 51.5742 30.0234C51.6094 33.082 51.6445 36.1055 51.5742 39.1641C51.5391 40.3242 51.8555 40.6406 53.0156 40.6055C58.3945 40.5352 63.7734 40.5703 69.1875 40.6055C70.1016 40.6055 70.875 40.3945 71.6484 39.8672C75.9726 37.0898 80.2969 34.3125 84.6562 31.6055C88.1719 29.4258 91.7227 29.4258 95.2383 31.5703C97.3828 32.8711 99.5977 34.1016 101.602 35.6133C106.699 39.5508 112.184 41.9766 117.492 40.5703ZM89.9648 162.457C115.137 162.457 140.344 162.457 165.516 162.457C167.73 162.457 167.73 162.457 167.027 160.383C165.34 155.461 161.121 152.613 155.32 152.613C111.762 152.613 68.168 152.613 24.6094 152.613C24.1523 152.613 23.6602 152.613 23.2031 152.648C18.3867 152.895 14.3086 156.059 12.832 160.559C12.2344 162.457 12.2344 162.457 14.2031 162.457C39.4805 162.457 64.7227 162.457 89.9648 162.457ZM61.6641 46.1953C61.5937 46.0898 61.5586 45.9844 61.4883 45.8438C48.7266 45.8438 35.9648 45.8438 23.2031 45.8438C21.1289 45.8438 20.4961 46.3711 20.0742 48.375C18.5977 55.0547 17.0859 61.6992 15.6094 68.3789C14.9766 71.1562 15.7852 72.1406 18.7031 72.1406C27.3164 72.1406 35.9297 72.1055 44.543 72.1758C46.0898 72.1758 46.5117 71.8242 46.4414 70.2773C46.3008 67.5352 46.4062 64.7578 46.4062 62.0156C46.4062 57.9375 48.1641 54.8438 51.5742 52.6289C54.9141 50.4844 58.2891 48.3398 61.6641 46.1953ZM118.406 45.8438C118.371 45.9492 118.336 46.0898 118.336 46.1953C121.746 48.3398 125.121 50.4844 128.496 52.6992C131.836 54.8789 133.559 57.9375 133.594 61.9453C133.594 64.8281 133.664 67.6758 133.559 70.5586C133.488 71.8945 133.91 72.1758 135.211 72.1758C143.93 72.1055 152.648 72.1406 161.402 72.1406C164.215 72.1406 165.023 71.1563 164.426 68.4492C162.949 61.9102 161.473 55.3359 159.996 48.7969C159.398 46.1953 158.977 45.8438 156.34 45.8438C146.391 45.8438 136.441 45.8438 126.457 45.8438C123.75 45.8438 121.078 45.8438 118.406 45.8438ZM145.723 100.266C149.484 100.266 153.211 100.23 156.973 100.301C157.992 100.301 158.238 100.02 158.238 99.0352C158.203 92.25 158.203 85.4648 158.238 78.6797C158.238 77.6953 157.992 77.4141 156.973 77.4141C149.59 77.4492 142.242 77.4492 134.859 77.4141C133.84 77.4141 133.594 77.6953 133.594 78.6797C133.629 85.4648 133.629 92.25 133.594 99.0352C133.594 100.055 133.875 100.301 134.859 100.301C138.445 100.23 142.102 100.266 145.723 100.266ZM87.3281 90.0352C87.3281 86.9414 87.293 83.8477 87.3633 80.7539C87.3984 79.7344 87.082 79.4883 86.0977 79.4883C81 79.5234 75.9375 79.5234 70.8398 79.4883C69.7852 79.4883 69.6094 79.8398 69.6094 80.7891C69.6445 86.8711 69.6445 92.9531 69.6094 99.0352C69.6094 100.02 69.8906 100.301 70.875 100.301C75.9023 100.266 80.9297 100.23 85.957 100.301C87.1875 100.336 87.3633 99.8789 87.3633 98.7891C87.293 95.8711 87.3281 92.9531 87.3281 90.0352ZM92.6016 89.8594C92.6016 92.918 92.6367 95.9414 92.5664 99C92.5664 99.9492 92.7422 100.336 93.7969 100.301C98.8945 100.23 103.957 100.266 109.055 100.301C110.039 100.301 110.32 100.02 110.32 99.0352C110.285 92.9531 110.285 86.8711 110.32 80.7891C110.32 79.8398 110.145 79.4883 109.09 79.4883C103.992 79.5586 98.9297 79.5234 93.832 79.4883C92.8477 79.4883 92.5664 79.7344 92.5664 80.7539C92.6367 83.7774 92.6016 86.8008 92.6016 89.8594Z" fill="#00C23E"/>
<path d="M119.777 126.316C119.848 119.672 125.297 114.293 131.906 114.328C138.586 114.363 144.105 119.988 144 126.598C143.894 133.348 138.41 138.621 131.66 138.551C125.016 138.481 119.707 133.031 119.777 126.316ZM131.871 133.277C135.633 133.277 138.691 130.219 138.691 126.492C138.691 122.801 135.598 119.672 131.906 119.602C128.109 119.566 125.016 122.695 125.051 126.527C125.086 130.324 128.074 133.313 131.871 133.277Z" fill="#00C23E"/>
<path d="M102.34 138.551C95.7305 138.516 90.3164 133.066 90.3164 126.457C90.3164 119.777 95.8711 114.258 102.516 114.328C109.125 114.398 114.539 119.848 114.539 126.457C114.539 133.172 109.09 138.586 102.34 138.551ZM102.375 133.277C106.137 133.313 109.23 130.289 109.266 126.563C109.301 122.766 106.172 119.566 102.375 119.602C98.6484 119.637 95.5898 122.731 95.5547 126.457C95.5898 130.219 98.6484 133.277 102.375 133.277Z" fill="#00C23E"/>
<path d="M85.043 126.527C85.043 129.516 85.0781 132.504 85.043 135.492C85.043 137.426 84.0234 138.551 82.4414 138.586C80.8594 138.586 79.8047 137.461 79.8047 135.563C79.7695 133.699 79.7695 131.801 79.8047 129.938C79.8398 128.988 79.5234 128.742 78.6094 128.777C76.7812 128.848 74.9883 128.848 73.1602 128.777C72.0703 128.707 71.8945 129.199 71.9297 130.113C71.9648 131.941 71.9648 133.734 71.9297 135.563C71.8945 137.496 70.875 138.586 69.2578 138.586C67.6406 138.586 66.6914 137.496 66.6563 135.527C66.6211 129.516 66.6211 123.469 66.6563 117.457C66.6563 115.594 67.7461 114.363 69.293 114.398C70.8398 114.434 71.8594 115.629 71.9297 117.527C71.9648 119.039 72 120.586 71.9297 122.098C71.8594 123.188 72.1055 123.68 73.3359 123.574C75.0234 123.469 76.7461 123.469 78.4336 123.574C79.4531 123.609 79.9102 123.398 79.8047 122.238C79.6992 120.621 79.7695 118.969 79.7695 117.316C79.8047 115.559 80.8594 114.398 82.3711 114.398C83.8828 114.363 85.0078 115.559 85.043 117.281C85.0781 120.305 85.043 123.434 85.043 126.527Z" fill="#00C23E"/>
<path d="M26.6484 138.551C24.4687 138.516 21.7265 137.461 19.5117 135.246C18.2812 134.016 18.1758 132.434 19.1953 131.344C20.2851 130.184 21.7265 130.148 23.0625 131.379C24.539 132.715 26.1914 133.418 28.1601 133.242C29.3203 133.137 30.4101 132.68 30.6562 131.414C30.9023 130.184 29.8125 129.727 28.9336 129.305C27.1758 128.531 25.3828 127.828 23.5898 127.125C21.2695 126.211 19.8984 124.523 19.6172 122.027C19.3359 119.355 20.3554 117.211 22.6054 115.734C25.9101 113.484 31.9218 114.188 34.6289 117.07C35.5781 118.09 35.7539 119.25 34.9101 120.41C34.0312 121.605 32.8007 121.957 31.5 121.184C30.4453 120.551 29.4258 119.918 28.1953 119.672C27.4218 119.531 26.6836 119.602 25.9453 119.883C25.3476 120.094 24.9258 120.48 24.8554 121.113C24.75 121.852 25.2773 122.133 25.8398 122.344C27.4218 122.941 29.0039 123.574 30.5508 124.207C34.6992 125.93 36.5976 128.953 35.8242 132.574C35.1562 136.125 31.6758 138.586 26.6484 138.551Z" fill="#00C23E"/>
<path d="M41.0273 126.281C41.168 121.816 43.1719 118.231 47.2148 115.945C51.2578 113.66 55.3711 113.801 59.3789 116.086C60.5391 116.754 61.2773 117.668 60.9961 119.074C60.75 120.305 59.9414 121.008 58.7461 121.219C57.7969 121.395 57.0938 120.797 56.3203 120.41C53.6484 119.039 50.625 119.461 48.5156 121.465C46.4414 123.398 45.7734 126.422 46.8281 129.023C48.5859 133.348 53.7187 134.578 57.1641 131.52C58.4297 130.395 59.8711 130.359 60.9258 131.344C62.0508 132.398 62.0508 133.91 60.8906 135.246C57.5508 139.078 51.1172 139.676 46.4766 136.512C42.8906 134.121 41.0977 130.746 41.0273 126.281Z" fill="#00C23E"/>
<path d="M149.52 126.492C149.52 123.68 149.52 120.867 149.52 118.09C149.52 115.629 150.469 114.328 152.227 114.363C153.914 114.398 154.828 115.664 154.828 118.019C154.828 122.625 154.863 127.266 154.793 131.871C154.793 132.996 155.039 133.453 156.234 133.312C157.148 133.207 158.098 133.242 159.047 133.312C160.523 133.453 161.508 134.613 161.437 136.055C161.332 137.566 160.488 138.48 159.012 138.516C156.727 138.621 154.441 138.586 152.191 138.516C150.539 138.48 149.66 137.461 149.625 135.598C149.484 132.574 149.52 129.516 149.52 126.492Z" fill="#00C23E"/>
</svg>
