<svg width="180" height="180" viewBox="0 0 180 180" fill="none" xmlns="http://www.w3.org/2000/svg">
<path d="M179.93 103.711C179.156 104.906 178.207 105.855 176.625 105.434C175.184 105.047 174.727 103.922 174.586 102.516C174.34 100.195 172.723 98.7188 170.402 98.5078C169.805 98.4727 169.242 98.4727 168.645 98.4727C126.316 98.4727 83.9883 98.4727 41.6953 98.4727C41.0977 98.4727 40.5352 98.5078 39.9375 98.4727C38.3906 98.3672 37.3359 97.3477 37.2656 95.9766C37.1953 94.5703 38.3203 93.3047 39.9023 93.2344C41.6602 93.1641 43.418 93.1641 45.1758 93.2344C46.0898 93.2695 46.3711 92.9883 46.3711 92.0391C46.3359 87.5391 46.3359 83.0391 46.3711 78.5039C46.3711 77.5547 46.0547 77.3438 45.1758 77.3438C37.7578 77.3789 30.3047 77.3789 22.8867 77.3438C21.9023 77.3438 21.7617 77.7305 21.7617 78.5742C21.7969 83.0742 21.7969 87.5742 21.7617 92.1094C21.7617 93.0938 22.1484 93.2695 22.9922 93.2344C24.3281 93.1641 25.6992 93.1992 27.0352 93.2344C29.1094 93.2695 30.2695 94.1836 30.3047 95.8359C30.3398 97.4883 29.1797 98.4727 27.1055 98.4727C21.5859 98.4727 16.1016 98.4727 10.582 98.4727C7.20703 98.4727 5.76562 99.7031 5.30859 103.008C5.13281 104.238 4.5 105.082 3.33984 105.398C1.72266 105.82 0.773438 104.906 0 103.711C0 102.656 0 101.602 0 100.547C0.386719 100.477 0.351562 100.125 0.457031 99.8789C2.35547 95.2734 5.48438 93.1992 10.5117 93.1992C12.0938 93.1992 13.6758 93.1641 15.2578 93.1992C16.1016 93.2344 16.5234 93.0938 16.4883 92.0742C16.418 87.5039 16.4531 82.9336 16.4883 78.3633C16.4883 77.5547 16.207 77.2734 15.5039 77.0274C11.3203 75.5156 9.35156 72.2109 10.2656 67.9922C11.8125 60.75 13.4648 53.5078 15.1172 46.2656C15.7148 43.6289 17.4375 41.8711 20.0039 40.9219C21.0586 40.5352 22.1836 40.4648 23.3086 40.4648C30.5156 40.4648 37.7227 40.4648 44.9297 40.4648C45.5273 40.4648 46.4062 40.8516 46.4062 39.6211C46.3711 37.2305 46.4062 34.875 46.4062 32.2734C45.7031 32.6953 45.2109 32.9766 44.7539 33.2578C42.3984 34.7344 41.0273 34.7344 40.0078 33.2227C38.9531 31.6758 39.5508 30.3047 41.9414 28.793C52.2422 22.2539 62.5078 15.6094 72.8789 9.17578C77.9414 6.01172 82.6523 2.25 88.2773 0C89.4375 0 90.6328 0 91.793 0C93.5508 0.667969 95.2383 1.47656 96.8555 2.49609C103.148 6.53906 109.477 10.5469 115.77 14.5547C123.469 19.4414 131.133 24.3281 138.832 29.2148C140.555 30.3398 141.012 31.7813 140.133 33.1875C139.254 34.5586 137.742 34.7344 135.984 33.6797C135.246 33.2578 134.648 32.5898 133.664 32.4141C133.664 34.5938 133.77 36.7031 133.629 38.8125C133.559 40.2188 134.016 40.5352 135.352 40.5352C142.488 40.4648 149.625 40.5 156.762 40.5C161.402 40.5 164.074 42.6094 165.094 47.1445C166.676 54.0352 168.188 60.9258 169.699 67.8164C170.648 72.1055 168.715 75.4805 164.461 77.0274C163.758 77.2734 163.477 77.5899 163.477 78.3633C163.512 82.8633 163.512 87.3633 163.477 91.8633C163.477 92.8125 163.688 93.1992 164.707 93.1641C166.5 93.0938 168.328 93.1289 170.156 93.1289C174.586 93.1992 178.207 95.8359 179.578 99.9492C179.684 100.266 179.508 100.688 180 100.793C179.93 101.848 179.93 102.762 179.93 103.711ZM89.9648 74.1797C97.3477 74.1797 104.73 74.1797 112.078 74.1797C114.68 74.1797 115.559 75.0586 115.559 77.6602C115.559 82.4063 115.594 87.1524 115.523 91.8984C115.523 92.9883 115.77 93.2695 116.859 93.2695C120.27 93.1992 123.645 93.1992 127.055 93.2695C128.074 93.3047 128.285 92.918 128.285 91.9688C128.25 81.9492 128.25 71.9649 128.285 61.9453C128.285 59.9063 127.477 58.3242 125.754 57.2344C114.609 50.1328 103.5 43.0664 92.3203 35.9648C90.7383 34.9805 89.1211 34.9453 87.5391 35.9648C76.3945 43.0313 65.25 50.1328 54.1055 57.2344C52.418 58.3242 51.5742 59.9063 51.5742 61.9453C51.5742 71.9649 51.6094 81.9492 51.5742 91.9688C51.5742 92.918 51.75 93.2695 52.8047 93.2695C56.2148 93.1992 59.5898 93.1992 63 93.2695C64.0898 93.3047 64.3711 92.9883 64.3359 91.8984C64.2656 87.2227 64.3008 82.5469 64.3008 77.8359C64.3008 75.0234 65.1445 74.1797 67.957 74.1797C75.3398 74.1797 82.6523 74.1797 89.9648 74.1797ZM117.352 40.5352C121.43 40.5352 124.242 40.5 127.055 40.5703C128.039 40.6055 128.355 40.3242 128.32 39.3047C128.25 36.2109 128.25 33.1172 128.32 29.9883C128.355 29.1094 127.969 28.6172 127.266 28.1953C115.699 20.8828 104.168 13.5703 92.6367 6.22266C90.8086 5.0625 89.0859 5.0625 87.2578 6.22266C75.7266 13.5703 64.1953 20.918 52.6289 28.1953C51.8203 28.6875 51.5742 29.25 51.5742 30.1641C51.6445 33.1523 51.6445 36.1406 51.5742 39.1289C51.5391 40.3242 51.9258 40.5703 53.0508 40.5352C58.3594 40.4648 63.7031 40.5 69.0469 40.5352C70.1016 40.5352 70.9453 40.2539 71.8242 39.6914C76.043 36.9492 80.2969 34.2773 84.5508 31.6055C88.1719 29.3203 91.793 29.3203 95.4141 31.6055C97.5586 32.9414 99.7734 34.1367 101.742 35.6484C106.77 39.5156 112.148 41.9414 117.352 40.5352ZM61.6289 46.1602C61.5937 46.0547 61.5586 45.9141 61.4883 45.8086C58.4648 45.8086 55.4414 45.8086 52.3828 45.8086C42.6445 45.8086 32.9414 45.8086 23.2031 45.8086C21.7266 45.8086 20.4961 46.125 20.1094 47.7773C18.5273 54.9141 16.9102 62.0156 15.3984 69.1524C14.9766 71.0508 15.8906 72.1055 17.8242 72.1055C26.8945 72.1406 35.9648 72.1055 45.0703 72.1406C46.0898 72.1406 46.3359 71.8242 46.3008 70.8399C46.2305 68.0274 46.3359 65.2149 46.2656 62.4023C46.1602 57.9375 48.0586 54.668 51.8203 52.3477C55.1602 50.3438 58.3945 48.2344 61.6289 46.1602ZM118.406 45.8086C118.371 45.9141 118.336 46.0547 118.336 46.1602C121.746 48.3047 125.121 50.4492 128.496 52.6641C131.836 54.8438 133.559 57.9024 133.594 61.9102C133.594 64.793 133.664 67.6406 133.559 70.5234C133.488 71.8945 133.91 72.1406 135.211 72.1406C143.93 72.0703 152.648 72.1055 161.402 72.1055C164.18 72.1055 165.023 71.1211 164.391 68.4141C162.914 61.875 161.438 55.3008 159.961 48.7617C159.363 46.1602 158.941 45.8086 156.305 45.8086C146.109 45.8086 135.914 45.8086 125.754 45.8086C123.293 45.8086 120.832 45.8086 118.406 45.8086ZM145.758 93.1992C149.484 93.1992 153.246 93.1641 156.973 93.1992C157.816 93.1992 158.203 93.0586 158.203 92.0742C158.133 87.5742 158.133 83.0742 158.203 78.5742C158.203 77.5195 157.852 77.3438 156.902 77.3438C149.59 77.3789 142.277 77.3789 134.965 77.3438C133.734 77.3438 133.559 77.7656 133.559 78.8555C133.629 83.1797 133.629 87.5039 133.559 91.8281C133.523 93.0586 133.98 93.2344 135.07 93.2344C138.621 93.1641 142.172 93.1992 145.758 93.1992ZM78.5391 93.1992C81.0703 93.1992 83.5664 93.1641 86.0625 93.2344C87.082 93.2695 87.3281 92.9531 87.3281 91.9688C87.2578 88.2422 87.293 84.4805 87.3281 80.7539C87.3281 79.8047 87.1523 79.4531 86.0977 79.4531C81 79.5234 75.9375 79.4883 70.8398 79.4531C69.8555 79.4531 69.5391 79.6992 69.5742 80.7188C69.6445 84.4453 69.6445 88.207 69.5742 91.9336C69.5391 93.0938 69.9961 93.2695 70.9805 93.2344C73.5117 93.1641 76.043 93.1992 78.5391 93.1992ZM101.391 93.1992C103.922 93.1992 106.418 93.1641 108.914 93.2344C109.898 93.2695 110.355 93.0938 110.32 91.9336C110.25 88.207 110.25 84.4453 110.32 80.7188C110.32 79.7344 110.039 79.4531 109.055 79.4531C103.957 79.4883 98.8945 79.4883 93.7969 79.4531C92.7422 79.4531 92.5664 79.8047 92.5664 80.7539C92.6016 84.4805 92.6367 88.2422 92.5664 91.9688C92.5664 92.9531 92.8125 93.2695 93.832 93.2344C96.3633 93.1641 98.8594 93.1992 101.391 93.1992Z" fill="#C164FF"/>
<path d="M0 141.996C0.84375 140.941 1.75781 139.922 3.33984 140.414C4.78125 140.871 5.16797 141.961 5.34375 143.367C5.58984 145.723 7.34766 147.199 9.73828 147.269C10.1953 147.269 10.6875 147.269 11.1445 147.269C63.7031 147.269 116.262 147.269 168.82 147.269C172.934 147.269 173.848 146.531 174.727 142.488C174.973 141.363 175.676 140.625 176.801 140.344C178.312 139.992 179.156 140.976 179.965 141.996C179.965 143.051 179.965 144.105 179.965 145.16C179.402 145.441 179.473 146.039 179.297 146.496C177.891 149.766 175.465 151.734 172.02 152.437C170.965 152.648 169.875 152.578 168.469 152.684C174.375 158.941 173.074 166.5 172.758 173.707C172.617 177.187 169.84 179.016 166.641 179.965C154.934 179.965 143.227 179.965 131.484 179.965C130.219 179.156 129.27 178.101 129.832 176.519C130.359 174.937 131.73 174.691 133.242 174.691C143.086 174.726 152.93 174.691 162.738 174.691C167.59 174.691 167.59 174.586 167.73 169.84C167.801 167.941 167.168 167.625 165.445 167.625C115.453 167.695 65.4961 167.695 15.5742 167.695C12.3047 167.695 12.3047 167.695 12.3047 170.93C12.3047 174.129 12.8672 174.691 16.0664 174.691C50.3789 174.691 84.6914 174.691 119.004 174.691C120.48 174.691 121.816 174.832 122.449 176.484C123.082 178.137 122.027 179.086 120.938 180C84.8672 180 48.7617 180 12.6914 180C12.6211 179.613 12.2695 179.648 12.0234 179.543C8.64844 178.066 6.99609 175.5 7.06641 171.844C7.10156 169.91 7.13672 167.976 7.06641 166.043C6.82031 161.156 8.01562 156.797 11.2148 153C11.25 152.93 11.1797 152.789 11.1445 152.613C10.793 152.613 10.4766 152.613 10.125 152.613C5.44922 152.578 2.25 150.363 0.5625 146.039C0.457031 145.758 0.527344 145.301 0.0703125 145.195C5.23869e-09 144.105 0 143.051 0 141.996ZM89.9648 162.422C115.137 162.422 140.344 162.422 165.516 162.422C167.73 162.422 167.73 162.422 167.027 160.383C165.34 155.461 161.121 152.613 155.355 152.613C111.797 152.613 68.2031 152.613 24.6445 152.613C24.1875 152.613 23.6953 152.613 23.2383 152.648C18.4219 152.894 14.3438 156.059 12.8672 160.559C12.2695 162.457 12.2695 162.457 14.2383 162.457C39.4805 162.422 64.7227 162.422 89.9648 162.422Z" fill="#C164FF"/>
<path d="M0 113.555C0.878906 112.887 1.54687 111.867 2.91797 112.078C4.35937 112.289 5.23828 113.309 5.27344 115.066C5.30859 118.512 5.41406 121.957 5.23828 125.402C5.13281 127.371 6.96094 128.566 8.26172 128.566C10.1602 128.602 11.4961 127.336 11.5313 125.473C11.5664 122.098 11.5313 118.688 11.5313 115.313C11.5313 113.168 12.4102 112.113 14.1328 112.113C15.8203 112.113 16.7695 113.203 16.8047 115.313C16.8398 118.652 16.8398 121.992 16.8047 125.297C16.7695 129.621 14.2734 132.785 10.2656 133.629C6.11719 134.508 2.25 132.539 0.492188 128.672C0.386719 128.426 0.386719 128.074 0.0351562 128.004C0 123.152 0 118.336 0 113.555Z" fill="#C164FF"/>
<path d="M179.93 115.664C178.312 118.09 176.73 120.516 175.078 122.906C174.691 123.469 174.656 124.102 174.656 124.734C174.656 126.773 174.691 128.848 174.656 130.887C174.621 132.645 173.602 133.805 172.09 133.84C170.543 133.875 169.453 132.68 169.383 130.816C169.383 130.746 169.383 130.711 169.383 130.641C170.191 125.473 168.574 121.043 165.234 117.141C164.918 116.789 164.707 116.367 164.496 115.945C163.793 114.609 164.109 113.449 165.305 112.535C166.43 111.691 168.012 111.902 168.891 113.133C169.98 114.645 170.965 116.227 172.09 117.879C173.004 116.508 173.812 115.242 174.656 114.012C176.379 111.41 178.137 111.375 179.965 113.906C179.93 114.469 179.93 115.066 179.93 115.664Z" fill="#C164FF"/>
<path d="M27.4219 123.152C27.4219 126 27.4219 128.32 27.4219 130.641C27.4219 132.645 26.332 133.875 24.7148 133.84C23.168 133.805 22.1484 132.574 22.1484 130.676C22.1484 125.508 22.1484 120.375 22.1484 115.207C22.1484 113.766 22.6055 112.641 24.0469 112.184C25.4883 111.762 26.5078 112.465 27.3164 113.625C29.3203 116.578 31.3594 119.461 33.6445 122.801C33.6445 120.902 33.6445 119.496 33.6445 118.055C33.6445 117.07 33.5742 116.051 33.6094 115.066C33.6445 113.062 34.5586 112.043 36.2461 112.043C37.8281 112.043 38.7773 113.027 38.8828 114.926C38.9531 115.91 38.918 116.93 38.9531 117.914C38.9883 122.027 39.0234 126.105 39.0586 130.219C39.0586 131.766 38.5312 133.031 36.9492 133.488C35.4727 133.945 34.3828 133.207 33.5391 131.977C31.5703 129.164 29.6367 126.387 27.4219 123.152Z" fill="#C164FF"/>
<path d="M104.414 125.367C105.434 126.527 106.453 127.652 107.437 128.813C108.879 130.465 108.984 132.012 107.754 133.137C106.488 134.297 105.012 134.016 103.535 132.363C102.375 131.063 101.215 129.727 99.7383 128.074C99.7383 129.27 99.7734 130.113 99.7383 130.922C99.668 132.68 98.5781 133.84 97.1016 133.84C95.5898 133.84 94.5 132.68 94.5 130.922C94.4648 125.613 94.4648 120.27 94.5 114.961C94.5 112.992 95.4492 112.113 97.4531 112.078C98.7891 112.043 100.16 112.043 101.496 112.078C104.906 112.148 107.543 114.082 108.422 117.211C109.266 120.199 108 123.117 105.082 124.945C104.871 125.086 104.66 125.191 104.414 125.367ZM100.934 117.352C100.055 117.141 99.5273 117.527 99.7734 118.617C99.9492 119.391 99.0352 120.762 100.934 120.621C102.129 120.551 103.289 120.41 103.324 118.969C103.324 117.633 102.27 117.352 100.934 117.352Z" fill="#C164FF"/>
<path d="M121.289 112.043C123.469 112.043 125.437 112.746 127.16 114.012C128.637 115.066 128.953 116.543 128.109 117.809C127.266 119.074 125.754 119.356 124.242 118.406C123.187 117.738 122.098 117.211 120.797 117.352C120.129 117.422 119.461 117.633 119.32 118.371C119.18 119.109 119.918 119.285 120.445 119.496C121.641 119.918 122.906 120.234 124.102 120.691C127.793 122.133 129.551 124.945 128.953 128.25C128.391 131.273 125.332 133.734 121.746 133.805C118.898 133.875 116.332 132.961 114.258 130.957C112.887 129.656 112.746 128.109 113.836 126.949C114.891 125.824 116.367 125.824 117.738 127.02C119.145 128.215 120.691 128.883 122.555 128.32C123.152 128.145 123.645 127.793 123.75 127.16C123.855 126.422 123.258 126.106 122.766 125.895C121.535 125.402 120.234 124.981 118.969 124.559C115.383 123.293 113.555 120.691 114.082 117.668C114.68 114.223 117.562 112.008 121.289 112.043Z" fill="#C164FF"/>
<path d="M76.4297 122.766C76.4297 120.234 76.3945 117.738 76.4297 115.207C76.4648 113.027 77.4141 112.113 79.5586 112.113C81.5977 112.078 83.6367 112.078 85.7109 112.113C87.4687 112.148 88.5938 113.168 88.5938 114.715C88.5938 116.262 87.5039 117.316 85.7461 117.387C84.9727 117.422 84.2344 117.387 83.4609 117.387C81.7734 117.387 81.3164 118.055 81.7031 119.707C81.8438 120.305 82.2305 120.234 82.6172 120.234C83.5664 120.234 84.4805 120.199 85.4297 120.27C87.0469 120.375 88.1367 121.535 88.1016 122.941C88.0664 124.383 86.9766 125.438 85.3242 125.508C84.6914 125.543 84.0234 125.578 83.3906 125.508C81.9844 125.297 81.5625 125.895 81.668 127.23C81.7383 128.109 81.9141 128.496 82.8633 128.426C83.918 128.355 84.9727 128.355 86.0273 128.461C87.6797 128.602 88.6992 129.727 88.5586 131.238C88.418 132.82 87.4336 133.664 85.8867 133.699C83.6719 133.77 81.457 133.77 79.207 133.699C77.3437 133.664 76.4648 132.715 76.4297 130.816C76.3945 128.145 76.4297 125.473 76.4297 122.766Z" fill="#C164FF"/>
<path d="M63.1055 123.715C64.2305 120.34 65.2148 117.387 66.1992 114.398C66.5508 113.273 67.1484 112.395 68.4141 112.148C70.5937 111.762 72 113.66 71.2266 116.051C69.7148 120.691 68.1328 125.332 66.5859 130.008C66.375 130.676 66.1641 131.344 65.918 131.977C65.3906 133.172 64.4414 133.84 63.1758 133.84C61.9102 133.84 60.8906 133.242 60.4336 132.012C58.4648 126.457 56.4961 120.902 54.6328 115.313C54.1758 113.906 54.9492 112.781 56.2852 112.219C57.6562 111.656 59.0977 112.359 59.6602 113.906C60.6797 116.648 61.5937 119.426 62.543 122.168C62.6836 122.52 62.8242 122.906 63.1055 123.715Z" fill="#C164FF"/>
<path d="M149.414 124.453C149.414 122.625 149.344 120.832 149.449 119.004C149.52 117.809 149.344 117.246 147.902 117.316C145.898 117.387 144.633 115.91 144.984 114.258C145.266 112.922 146.145 112.113 147.586 112.113C150.574 112.113 153.562 112.078 156.551 112.113C158.273 112.148 159.258 113.098 159.293 114.645C159.328 116.156 158.309 117.387 156.656 117.316C154.793 117.211 154.652 117.984 154.688 119.531C154.793 123.223 154.723 126.914 154.723 130.605C154.723 132.68 153.738 133.875 152.121 133.875C150.539 133.875 149.484 132.645 149.449 130.641C149.379 128.531 149.414 126.492 149.414 124.453Z" fill="#C164FF"/>
<path d="M134.508 122.871C134.508 120.305 134.473 117.703 134.508 115.137C134.543 113.133 135.422 112.078 137.074 112.078C138.727 112.078 139.746 113.133 139.781 115.066C139.816 120.27 139.816 125.473 139.781 130.711C139.781 132.609 138.691 133.805 137.18 133.84C135.562 133.875 134.543 132.645 134.543 130.605C134.473 128.039 134.508 125.473 134.508 122.871Z" fill="#C164FF"/>
<path d="M49.8867 123.047C49.8867 125.578 49.8867 128.074 49.8867 130.605C49.8867 132.609 48.832 133.875 47.2148 133.875C45.5977 133.875 44.6133 132.645 44.6133 130.605C44.6133 125.508 44.6133 120.41 44.6133 115.313C44.6133 113.238 45.5625 112.113 47.25 112.113C48.9023 112.113 49.8867 113.273 49.8867 115.348C49.8867 117.879 49.8867 120.445 49.8867 123.047Z" fill="#C164FF"/>
</svg>
