<?xml version="1.0" standalone="no"?>
<!DOCTYPE svg PUBLIC "-//W3C//DTD SVG 20010904//EN"
 "http://www.w3.org/TR/2001/REC-SVG-20010904/DTD/svg10.dtd">
<svg version="1.0" xmlns="http://www.w3.org/2000/svg"
 width="512.000000pt" height="512.000000pt" viewBox="0 0 512.000000 512.000000"
 preserveAspectRatio="xMidYMid meet">

<g transform="translate(0.000000,512.000000) scale(0.100000,-0.100000)"
fill="#000000" stroke="none">
<path d="M2605 5107 c-68 -23 -101 -44 -148 -97 -58 -65 -79 -126 -76 -225 l2
-76 -60 -67 c-428 -479 -413 -460 -413 -507 0 -36 5 -48 31 -69 40 -34 96 -35
130 -3 13 12 111 120 218 240 107 120 198 214 202 210 10 -12 1230 -2126 1232
-2137 2 -8 -2134 -460 -2138 -453 -28 40 -548 953 -549 963 0 7 100 126 224
264 124 139 231 266 238 282 10 23 10 38 2 64 -15 44 -45 64 -96 64 -48 0 -47
1 -362 -352 l-202 -226 -266 -154 c-200 -115 -283 -169 -335 -216 -316 -292
-318 -774 -5 -1069 123 -116 248 -174 417 -196 106 -13 223 0 327 38 36 13 67
23 69 22 1 -2 32 -54 68 -117 77 -133 111 -172 180 -207 60 -31 158 -36 217
-10 l38 16 39 -67 c22 -37 153 -263 291 -502 138 -239 263 -447 277 -462 15
-15 46 -35 70 -44 76 -29 112 -17 346 117 117 67 223 131 236 143 34 30 61 94
61 144 0 77 -45 139 -152 207 -44 27 -61 54 -274 425 -125 217 -229 399 -232
403 -2 4 18 32 46 60 82 88 104 209 56 309 -10 21 -16 39 -13 41 2 2 350 76
774 164 l769 160 44 -34 c151 -115 382 -61 469 111 31 61 42 172 23 232 -23
71 -1421 2485 -1465 2529 -22 22 -62 51 -90 64 -60 29 -162 37 -220 18z m144
-203 c34 -20 -45 114 759 -1280 516 -893 682 -1189 682 -1213 0 -94 -97 -151
-175 -102 -23 14 -168 257 -635 1067 -868 1503 -800 1382 -800 1427 0 49 13
73 53 97 39 24 80 25 116 4z m-1612 -2604 c233 -404 260 -455 245 -465 -47
-32 -383 -221 -437 -246 -192 -90 -430 -45 -586 110 -112 112 -169 263 -156
414 13 145 82 281 188 366 62 50 459 282 474 277 6 -1 128 -207 272 -456z
m978 -530 c30 -58 31 -80 8 -109 -10 -12 -166 -107 -348 -212 -341 -198 -375
-213 -412 -176 -26 26 -142 231 -135 239 4 3 83 50 175 103 l168 97 247 53
c136 29 253 53 259 54 7 1 24 -21 38 -49z m159 -825 c131 -228 251 -425 266
-438 15 -13 48 -37 74 -53 25 -16 45 -32 43 -37 -2 -7 -360 -217 -364 -213 -8
7 -563 977 -563 983 1 9 279 171 295 172 6 0 117 -186 249 -414z"/>
<path d="M4071 4973 c-17 -16 -100 -150 -186 -299 -130 -228 -155 -277 -155
-311 0 -83 98 -123 158 -65 16 15 100 149 186 299 174 304 180 321 127 374
-40 39 -89 40 -130 2z"/>
<path d="M4954 4616 c-37 -37 -43 -70 -20 -115 15 -28 53 -51 86 -51 51 0 100
49 100 100 0 31 -29 76 -57 89 -42 19 -73 13 -109 -23z"/>
<path d="M4339 4272 c-304 -175 -346 -203 -362 -234 -21 -44 -15 -77 21 -113
49 -49 72 -40 443 174 341 196 369 217 369 271 0 51 -51 100 -103 100 -13 0
-178 -89 -368 -198z"/>
<path d="M1639 3871 c-22 -23 -29 -39 -29 -69 0 -109 135 -138 183 -40 16 33
16 40 4 71 -30 71 -106 90 -158 38z"/>
<path d="M4263 3676 c-23 -20 -28 -32 -28 -69 0 -54 22 -82 74 -97 52 -14 497
-12 541 3 49 17 76 72 60 122 -21 65 -23 65 -337 65 l-282 0 -28 -24z"/>
</g>
</svg>
