<svg width="12" height="14" viewBox="0 0 12 14" fill="none" xmlns="http://www.w3.org/2000/svg">
<path d="M0 13.5V1.94444H4.56156C4.49559 1.57563 4.5837 1.24269 4.82589 0.945611C5.06759 0.648537 5.3873 0.5 5.785 0.5C6.1827 0.5 6.50241 0.648537 6.74411 0.945611C6.98582 1.24269 7.06935 1.57563 6.99472 1.94444H11.5556V13.5H0ZM2.52778 10.8061H6.86111V10.0839H2.52778V10.8061ZM2.52778 8.08333H9.02778V7.36111H2.52778V8.08333ZM2.52778 5.36056H9.02778V4.63833H2.52778V5.36056ZM5.77778 2.26439C5.93426 2.26439 6.06378 2.21335 6.16633 2.11128C6.26889 2.0092 6.31993 1.87969 6.31944 1.72272C6.31896 1.56576 6.26768 1.43648 6.16561 1.33489C6.06354 1.2333 5.93426 1.18178 5.77778 1.18033C5.6213 1.17889 5.49202 1.23017 5.38994 1.33417C5.28787 1.43817 5.23659 1.56744 5.23611 1.722C5.23563 1.87656 5.28691 2.00607 5.38994 2.11056C5.49298 2.21504 5.62226 2.2668 5.77778 2.26439Z" fill="black"/>
</svg>
