<svg width="13" height="12" viewBox="0 0 13 12" fill="none" xmlns="http://www.w3.org/2000/svg">
<path d="M11.8182 0.5H1.18182C0.531818 0.5 0 1 0 1.61111V6.05556H1.18182V1.61111H11.8182V10.5C12.4682 10.5 13 10 13 9.38889V1.61111C13 1 12.4682 0.5 11.8182 0.5Z" fill="black"/>
<path d="M4.5 6.5C5.88071 6.5 7 5.60457 7 4.5C7 3.39543 5.88071 2.5 4.5 2.5C3.11929 2.5 2 3.39543 2 4.5C2 5.60457 3.11929 6.5 4.5 6.5Z" fill="black"/>
<path d="M8.09438 8.39143C7.14938 7.9 5.92314 7.5 4.50002 7.5C3.0769 7.5 1.85065 7.9 0.905658 8.39143C0.631192 8.53504 0.401267 8.7531 0.241404 9.02142C0.0815415 9.28973 -0.00200551 9.5978 3.65568e-05 9.91143V11.5H9V9.91143C9 9.27143 8.65688 8.68286 8.09438 8.39143Z" fill="black"/>
</svg>
