<svg width="13" height="13" viewBox="0 0 13 13" fill="none" xmlns="http://www.w3.org/2000/svg">
<path d="M11.9765 2.6742C11.9342 2.64062 11.8837 2.61904 11.8303 2.61173C11.7768 2.60442 11.7224 2.61165 11.6727 2.63266L6.83784 4.72625C6.62763 4.81784 6.36437 4.86138 6.0941 4.86138C5.71722 4.86288 5.32733 4.7753 5.05556 4.65618C4.9727 4.62138 4.89384 4.57775 4.82033 4.52605C4.84068 4.51604 4.86487 4.50536 4.8929 4.49402L9.29028 2.59012L9.94594 2.8704V2.05108C9.94674 1.99268 9.93444 1.93484 9.90992 1.88183C9.88541 1.82882 9.84931 1.78198 9.8043 1.74477C9.76241 1.71089 9.71206 1.6891 9.65869 1.68178C9.60531 1.67446 9.55095 1.68188 9.50149 1.70323L4.66667 3.79682C4.51752 3.85688 4.3894 3.93096 4.28129 4.03856C4.15624 4.16216 4.08517 4.33021 4.08359 4.50603C4.08359 4.51103 4.08509 4.51954 4.08509 4.51954V11.8919L4.08409 11.9019L4.08559 11.9069V11.9149H4.08659C4.0966 12.1727 4.22673 12.3368 4.35086 12.453C4.74125 12.7973 5.3969 12.99 6.0946 13C6.42493 13 6.76026 12.95 7.07057 12.8168L11.9069 10.7227C12.0345 10.6677 12.1181 10.531 12.1181 10.3764V2.98051C12.1189 2.92211 12.1066 2.86427 12.0821 2.81126C12.0576 2.75825 12.0215 2.71141 11.9765 2.6742ZM8.9099 1.2728C8.90139 1.16269 8.85585 1.05759 8.77477 0.994526C8.73253 0.960947 8.68203 0.939368 8.62857 0.932058C8.57511 0.924748 8.52067 0.931977 8.47097 0.952985L3.63614 3.04557C3.42593 3.13666 3.16217 3.18071 2.8924 3.18071C2.51553 3.18171 2.12564 3.09412 1.85387 2.9745C1.77105 2.94002 1.69219 2.89672 1.61863 2.84537C1.63899 2.83536 1.66318 2.82468 1.6912 2.81334L6.08909 0.909441L6.74474 1.18972V0.371405C6.74549 0.312965 6.73311 0.255103 6.70851 0.202088C6.6839 0.149074 6.64771 0.102259 6.6026 0.0650994C6.56042 0.0316121 6.51 0.0100864 6.45664 0.00277776C6.40328 -0.00453088 6.34893 0.00264655 6.2993 0.0235579L1.46448 2.11765C1.31533 2.17771 1.1877 2.25128 1.07909 2.35939C0.954228 2.48307 0.883341 2.65111 0.881897 2.82685C0.881897 2.83286 0.883398 2.84087 0.883398 2.84087V10.2367H0.8844C0.89441 10.4945 1.02454 10.6587 1.14866 10.7748C1.53905 11.1191 2.19471 11.3113 2.8929 11.3213C3.0825 11.3201 3.27149 11.2996 3.45697 11.2603V4.51904C3.45196 4.16869 3.5921 3.83236 3.83835 3.59012C4.00916 3.4249 4.2118 3.29616 4.43394 3.21174L8.9099 1.2728Z" fill="black"/>
</svg>
