<svg width="23" height="22" viewBox="0 0 23 22" fill="none" xmlns="http://www.w3.org/2000/svg">
<path d="M10.9755 2.04883H3.60567C3.04721 2.04883 2.51163 2.27067 2.11674 2.66556C1.72185 3.06045 1.5 3.59604 1.5 4.1545V18.8942C1.5 19.4527 1.72185 19.9882 2.11674 20.3831C2.51163 20.778 3.04721 20.9999 3.60567 20.9999H18.3454C18.9038 20.9999 19.4394 20.778 19.8343 20.3831C20.2292 19.9882 20.451 19.4527 20.451 18.8942V11.5243" stroke="#6777EF" stroke-width="2" stroke-linecap="round" stroke-linejoin="round"/>
<path d="M17.6873 1.65415C18.1062 1.2353 18.6742 1 19.2666 1C19.8589 1 20.427 1.2353 20.8458 1.65415C21.2647 2.07299 21.5 2.64107 21.5 3.2334C21.5 3.82574 21.2647 4.39381 20.8458 4.81265L11.3566 14.3029C11.1066 14.5527 10.7978 14.7355 10.4586 14.8346L7.43376 15.719C7.34317 15.7454 7.24714 15.747 7.15572 15.7236C7.0643 15.7001 6.98086 15.6526 6.91413 15.5859C6.8474 15.5191 6.79984 15.4357 6.77642 15.3443C6.753 15.2528 6.75458 15.1568 6.78101 15.0662L7.66539 12.0414C7.76491 11.7025 7.94811 11.394 8.19812 11.1444L17.6873 1.65415Z" stroke="#6777EF" stroke-width="2" stroke-linecap="round" stroke-linejoin="round"/>
</svg>
