<svg width="80" height="80" viewBox="0 0 80 80" fill="none" xmlns="http://www.w3.org/2000/svg">
<rect width="80" height="80" rx="14" fill="#C164FF"/>
<path d="M25.4167 58.75C24.2708 58.75 23.2899 58.342 22.474 57.526C21.658 56.7101 21.25 55.7292 21.25 54.5833V25.4167C21.25 24.2708 21.658 23.2899 22.474 22.474C23.2899 21.658 24.2708 21.25 25.4167 21.25H54.5833C55.7292 21.25 56.7101 21.658 57.526 22.474C58.342 23.2899 58.75 24.2708 58.75 25.4167V54.5833C58.75 55.7292 58.342 56.7101 57.526 57.526C56.7101 58.342 55.7292 58.75 54.5833 58.75H25.4167ZM35.8333 54.5833V42.0833H25.4167V54.5833H35.8333ZM40 54.5833H54.5833V42.0833H40V54.5833ZM25.4167 37.9167H54.5833V25.4167H25.4167V37.9167Z" fill="white"/>
</svg>
