<svg width="23" height="14" viewBox="0 0 23 14" fill="none" xmlns="http://www.w3.org/2000/svg">
<path fill-rule="evenodd" clip-rule="evenodd" d="M15.7053 2.2283C15.6072 2.13692 15.5286 2.02673 15.474 1.9043C15.4194 1.78187 15.3901 1.64971 15.3877 1.51569C15.3854 1.38168 15.41 1.24856 15.4602 1.12428C15.5104 1 15.5851 0.887109 15.6799 0.792332C15.7747 0.697556 15.8876 0.62284 16.0119 0.572641C16.1362 0.522443 16.2693 0.497791 16.4033 0.500155C16.5373 0.50252 16.6695 0.531853 16.7919 0.586404C16.9143 0.640955 17.0245 0.719607 17.1159 0.817668L21.4409 5.1427L22.1462 5.84802L21.4409 6.55333L17.1159 10.8784C16.9267 11.0547 16.6764 11.1506 16.4179 11.1461C16.1593 11.1415 15.9126 11.0368 15.7297 10.8539C15.5469 10.671 15.4421 10.4243 15.4375 10.1658C15.433 9.90719 15.529 9.65694 15.7053 9.46774L18.3269 6.8461H5.17879C4.87296 6.8461 4.57013 6.90634 4.28758 7.02337C4.00503 7.14041 3.74829 7.31195 3.53204 7.52821C3.31578 7.74446 3.14424 8.0012 3.0272 8.28375C2.91017 8.5663 2.84993 8.86913 2.84993 9.17496C2.84993 9.4808 2.91017 9.78363 3.0272 10.0662C3.14424 10.3487 3.31578 10.6055 3.53204 10.8217C3.74829 11.038 4.00503 11.2095 4.28758 11.3266C4.57013 11.4436 4.87296 11.5038 5.17879 11.5038H7.84035C8.10506 11.5038 8.35893 11.609 8.54611 11.7962C8.73328 11.9833 8.83844 12.2372 8.83844 12.5019C8.83844 12.7666 8.73328 13.0205 8.54611 13.2077C8.35893 13.3948 8.10506 13.5 7.84035 13.5H5.17879C4.03172 13.5 2.93163 13.0443 2.12053 12.2332C1.30943 11.4221 0.85376 10.322 0.85376 9.17496C0.85376 8.02789 1.30943 6.92781 2.12053 6.1167C2.93163 5.3056 4.03172 4.84993 5.17879 4.84993H18.3269L15.7053 2.2283Z" fill="black"/>
</svg>
