<svg width="55" height="45" viewBox="0 0 55 45" fill="none" xmlns="http://www.w3.org/2000/svg">
<path d="M5.5 44.5C3.9875 44.5 2.69271 43.9615 1.61563 42.8844C0.538542 41.8073 0 40.5125 0 39V6C0 4.4875 0.538542 3.19271 1.61563 2.11563C2.69271 1.03854 3.9875 0.5 5.5 0.5H49.5C51.0125 0.5 52.3073 1.03854 53.3844 2.11563C54.4615 3.19271 55 4.4875 55 6V39C55 40.5125 54.4615 41.8073 53.3844 42.8844C52.3073 43.9615 51.0125 44.5 49.5 44.5H5.5ZM27.5 25.25L5.5 11.5V39H49.5V11.5L27.5 25.25ZM27.5 19.75L49.5 6H5.5L27.5 19.75ZM5.5 11.5V6V39V11.5Z" fill="#212B36"/>
</svg>
