<svg width="13" height="13" viewBox="0 0 13 13" fill="none" xmlns="http://www.w3.org/2000/svg">
<path d="M6.50236 4.73005C6.06793 4.73005 5.66111 4.89859 5.35308 5.20661C5.04651 5.51463 4.87652 5.92146 4.87652 6.35589C4.87652 6.79032 5.04651 7.19714 5.35308 7.50516C5.66111 7.81173 6.06793 7.98173 6.50236 7.98173C6.93679 7.98173 7.34361 7.81173 7.65164 7.50516C7.95821 7.19714 8.1282 6.79032 8.1282 6.35589C8.1282 5.92146 7.95821 5.51463 7.65164 5.20661C7.50119 5.05501 7.32212 4.93481 7.12482 4.853C6.92753 4.77119 6.71594 4.72939 6.50236 4.73005ZM12.4928 8.15172L11.5426 7.33953C11.5877 7.06347 11.6109 6.7816 11.6109 6.50118C11.6109 6.22076 11.5877 5.93744 11.5426 5.66283L12.4928 4.85064C12.5646 4.78919 12.616 4.70735 12.6401 4.61599C12.6643 4.52463 12.66 4.42809 12.628 4.33921L12.6149 4.30143C12.3534 3.57015 11.9615 2.8923 11.4583 2.30073L11.4322 2.27022C11.3711 2.19837 11.2896 2.14673 11.1986 2.12209C11.1076 2.09745 11.0112 2.10097 10.9222 2.13219L9.74242 2.55209C9.30653 2.19467 8.82125 1.9128 8.29529 1.71665L8.06718 0.483103C8.04997 0.390176 8.00489 0.304685 7.93793 0.237988C7.87098 0.171292 7.78531 0.126546 7.69232 0.109697L7.65309 0.102432C6.89756 -0.0341441 6.10135 -0.0341441 5.34582 0.102432L5.30659 0.109697C5.2136 0.126546 5.12793 0.171292 5.06098 0.237988C4.99402 0.304685 4.94894 0.390176 4.93173 0.483103L4.70217 1.72246C4.18118 1.92016 3.69585 2.20135 3.26521 2.555L2.0767 2.13219C1.98773 2.10072 1.8913 2.09707 1.8002 2.12173C1.70911 2.14638 1.62768 2.19817 1.56672 2.27022L1.54057 2.30073C1.03827 2.89293 0.646524 3.57061 0.384028 4.30143L0.370952 4.33921C0.30557 4.52082 0.359329 4.72424 0.506076 4.85064L1.46792 5.67155C1.42288 5.94471 1.40109 6.22367 1.40109 6.49973C1.40109 6.77869 1.42288 7.05766 1.46792 7.3279L0.508981 8.14882C0.4372 8.21027 0.385825 8.29211 0.361688 8.38347C0.337551 8.47482 0.341796 8.57136 0.373858 8.66025L0.386934 8.69803C0.649917 9.42886 1.03785 10.1045 1.54347 10.6987L1.56963 10.7292C1.63073 10.8011 1.71217 10.8527 1.80321 10.8774C1.89424 10.902 1.99061 10.8985 2.07961 10.8673L3.26811 10.4445C3.70109 10.8004 4.18347 11.0823 4.70507 11.277L4.93464 12.5164C4.95185 12.6093 4.99693 12.6948 5.06388 12.7615C5.13084 12.8282 5.2165 12.8729 5.3095 12.8898L5.34873 12.897C6.11169 13.0343 6.89303 13.0343 7.65599 12.897L7.69522 12.8898C7.78822 12.8729 7.87388 12.8282 7.94084 12.7615C8.00779 12.6948 8.05287 12.6093 8.07008 12.5164L8.29819 11.2828C8.82416 11.0852 9.30944 10.8048 9.74532 10.4474L10.9251 10.8673C11.0141 10.8987 11.1105 10.9024 11.2016 10.8777C11.2927 10.8531 11.3741 10.8013 11.4351 10.7292L11.4612 10.6987C11.9669 10.1016 12.3548 9.42886 12.6178 8.69803L12.6309 8.66025C12.6933 8.48009 12.6396 8.27813 12.4928 8.15172ZM6.50236 8.91016C5.09156 8.91016 3.94809 7.76669 3.94809 6.35589C3.94809 4.94508 5.09156 3.80162 6.50236 3.80162C7.91316 3.80162 9.05663 4.94508 9.05663 6.35589C9.05663 7.76669 7.91316 8.91016 6.50236 8.91016Z" fill="black"/>
</svg>
