<svg width="13" height="14" viewBox="0 0 13 14" fill="none" xmlns="http://www.w3.org/2000/svg">
<path d="M6.15888 5.23005C5.72446 5.23005 5.31763 5.39859 5.00961 5.70661C4.70304 6.01463 4.53304 6.42146 4.53304 6.85589C4.53304 7.29032 4.70304 7.69714 5.00961 8.00516C5.31763 8.31173 5.72446 8.48173 6.15888 8.48173C6.59331 8.48173 7.00014 8.31173 7.30816 8.00516C7.61473 7.69714 7.78473 7.29032 7.78473 6.85589C7.78473 6.42146 7.61473 6.01463 7.30816 5.70661C7.15771 5.55501 6.97864 5.43481 6.78135 5.353C6.58405 5.27119 6.37247 5.22939 6.15888 5.23005ZM12.1494 8.65172L11.1991 7.83953C11.2442 7.56347 11.2674 7.2816 11.2674 7.00118C11.2674 6.72076 11.2442 6.43744 11.1991 6.16283L12.1494 5.35064C12.2211 5.28919 12.2725 5.20735 12.2967 5.11599C12.3208 5.02463 12.3165 4.92809 12.2845 4.83921L12.2714 4.80143C12.0099 4.07015 11.6181 3.3923 11.1149 2.80073L11.0887 2.77022C11.0276 2.69837 10.9462 2.64673 10.8551 2.62209C10.7641 2.59745 10.6677 2.60097 10.5787 2.63219L9.39894 3.05209C8.96306 2.69467 8.47778 2.4128 7.95181 2.21665L7.7237 0.983103C7.70649 0.890176 7.66141 0.804685 7.59446 0.737988C7.5275 0.671292 7.44184 0.626546 7.34884 0.609697L7.30961 0.602432C6.55408 0.465856 5.75787 0.465856 5.00234 0.602432L4.96311 0.609697C4.87012 0.626546 4.78446 0.671292 4.7175 0.737988C4.65054 0.804685 4.60547 0.890176 4.58826 0.983103L4.35869 2.22246C3.8377 2.42016 3.35237 2.70135 2.92173 3.055L1.73323 2.63219C1.64426 2.60072 1.54782 2.59707 1.45673 2.62173C1.36563 2.64638 1.2842 2.69817 1.22325 2.77022L1.19709 2.80073C0.694793 3.39293 0.303049 4.07061 0.0405532 4.80143L0.0274767 4.83921C-0.0379056 5.02082 0.0158532 5.22424 0.1626 5.35064L1.12445 6.17155C1.07941 6.44471 1.05761 6.72367 1.05761 6.99973C1.05761 7.27869 1.07941 7.55766 1.12445 7.8279L0.165506 8.64882C0.0937245 8.71027 0.0423496 8.79211 0.0182127 8.88347C-0.00592425 8.97482 -0.00167954 9.07136 0.0303825 9.16025L0.043459 9.19803C0.306441 9.92886 0.694376 10.6045 1.2 11.1987L1.22615 11.2292C1.28725 11.3011 1.36869 11.3527 1.45973 11.3774C1.55077 11.402 1.64714 11.3985 1.73613 11.3673L2.92464 10.9445C3.35762 11.3004 3.83999 11.5823 4.3616 11.777L4.59116 13.0164C4.60837 13.1093 4.65345 13.1948 4.72041 13.2615C4.78736 13.3282 4.87303 13.3729 4.96602 13.3898L5.00525 13.397C5.76821 13.5343 6.54956 13.5343 7.31252 13.397L7.35175 13.3898C7.44474 13.3729 7.53041 13.3282 7.59736 13.2615C7.66432 13.1948 7.7094 13.1093 7.72661 13.0164L7.95472 11.7828C8.48068 11.5852 8.96597 11.3048 9.40185 10.9474L10.5816 11.3673C10.6706 11.3987 10.767 11.4024 10.8581 11.3777C10.9492 11.3531 11.0307 11.3013 11.0916 11.2292L11.1178 11.1987C11.6234 10.6016 12.0113 9.92886 12.2743 9.19803L12.2874 9.16025C12.3499 8.98009 12.2961 8.77813 12.1494 8.65172ZM6.15888 9.41016C4.74808 9.41016 3.60462 8.26669 3.60462 6.85589C3.60462 5.44508 4.74808 4.30162 6.15888 4.30162C7.56969 4.30162 8.71315 5.44508 8.71315 6.85589C8.71315 8.26669 7.56969 9.41016 6.15888 9.41016Z" fill="#333333"/>
</svg>
