<svg width="17" height="13" viewBox="0 0 17 13" fill="none" xmlns="http://www.w3.org/2000/svg">
<path d="M5.65626 8.9375C5.59558 8.9375 5.53489 8.94639 5.477 8.96518C5.14794 9.07207 4.80187 9.14062 4.43751 9.14062C4.07316 9.14062 3.72708 9.07207 3.39776 8.96518C3.33987 8.94639 3.27944 8.9375 3.21876 8.9375C1.64302 8.9375 0.366632 10.2192 0.375011 11.797C0.378565 12.4637 0.926749 13 1.59376 13H7.28126C7.94827 13 8.49646 12.4637 8.50001 11.797C8.50839 10.2192 7.232 8.9375 5.65626 8.9375ZM4.43751 8.125C5.78372 8.125 6.87501 7.03371 6.87501 5.6875C6.87501 4.34129 5.78372 3.25 4.43751 3.25C3.0913 3.25 2.00001 4.34129 2.00001 5.6875C2.00001 7.03371 3.0913 8.125 4.43751 8.125ZM15.4063 0H5.65626C4.98417 0 4.43751 0.564941 4.43751 1.25912V2.4375C5.03216 2.4375 5.58263 2.60965 6.06251 2.88945V1.625H15V8.9375H13.375V7.3125H10.125V8.9375H8.18923C8.67419 9.36127 9.03017 9.92088 9.19698 10.5625H15.4063C16.0784 10.5625 16.625 9.99756 16.625 9.30338V1.25912C16.625 0.564941 16.0784 0 15.4063 0Z" fill="black"/>
</svg>
